# xmcd CD database file
#
# Track frame offsets:
#	150
#	14313
#	44549
#	58598
#	108355
#	130405
#	147157
#	175836
#	214440
#	232431
#	256772
#	286692
#	319771
#
# Disc length: 4576 seconds
#
# Revision: 0
# Processed by: cddbd v1.5.2PL0 Copyright (c) Steve Scherf et al.
# Submitted via: CDex 1.70beta2
#
DISCID=c311de0d
DTITLE=Chris Hinze - Art of Baroque-Jazz Dance&World Music
DYEAR=2009
DGENRE=Jazz
TTITLE0=Largo
TTITLE1=Zava
TTITLE2=Badinerie
TTITLE3=Kata Katak
TTITLE4=O Haupt voll Blut und Wunde
TTITLE5=Eihei-Ji
TTITLE6=Lucis
TTITLE7=6/8 MPC
TTITLE8=Angel
TTITLE9=April 27
TTITLE10=The Queen
TTITLE11=Cobra
TTITLE12=Tenryu-Ji
EXTD=YEAR: 2009
EXTT0=
EXTT1=
EXTT2=
EXTT3=
EXTT4=
EXTT5=
EXTT6=
EXTT7=
EXTT8=
EXTT9=
EXTT10=
EXTT11=
EXTT12=
PLAYORDER=
